<svg xmlns="http://www.w3.org/2000/svg" viewBox="0 0 512 512">
  <defs>
    <linearGradient id="bg" x1="0%" y1="0%" x2="100%" y2="100%">
      <stop offset="0%" stop-color="#476500"/>
      <stop offset="100%" stop-color="#3a5c10"/>
    </linearGradient>
  </defs>
  <!-- Rounded square background (iOS icon shape) -->
  <rect width="512" height="512" rx="112" fill="url(#bg)"/>
  <!-- Sprout icon: lucide Sprout, 24x24 viewBox → centered & scaled to ~220px on 512 canvas -->
  <!-- scale=220/24≈9.17, center at (256,256), icon content center at (12,13) -->
  <g transform="translate(256,260) scale(9.17) translate(-12,-13)"
     stroke="white" stroke-width="1.5" stroke-linecap="round" stroke-linejoin="round" fill="none">
    <path d="M7 20h10"/>
    <path d="M10 20c5.5-2.5.8-6.4 3-10"/>
    <path d="M9.5 9.4c1.1.8 1.8 2.1 2.3 3.5-2 .4-3.5.4-4.8-.3-1.2-.6-2.3-1.9-3-4.2 2.8-.5 4.4 0 5.5 1z"/>
    <path d="M14.1 6a7 7 0 0 0-1.1 4c1.9-.1 3.3-.6 4.3-1.4 1-1 1.6-2.3 1.7-4.6-2.7.1-4 1-4.9 2z"/>
  </g>
</svg>
